<mxfile host="app.diagrams.net" modified="2024-02-21T22:22:52.374Z" agent="Mozilla/5.0 (Windows NT 10.0; Win64; x64) AppleWebKit/537.36 (KHTML, like Gecko) Chrome/121.0.0.0 Safari/537.36" etag="eknUjUwZ5GsDQ7AUjndd" version="23.1.5" type="device">
  <diagram name="Page-1" id="0aiOElM8F14677qJHSq9">
    <mxGraphModel dx="1434" dy="738" grid="1" gridSize="10" guides="1" tooltips="1" connect="1" arrows="1" fold="1" page="1" pageScale="1" pageWidth="827" pageHeight="1169" math="0" shadow="0">
      <root>
        <mxCell id="0" />
        <mxCell id="1" parent="0" />
        <mxCell id="zyVkJc15Gza4P8rjBRWq-3" value="" style="edgeStyle=orthogonalEdgeStyle;rounded=0;orthogonalLoop=1;jettySize=auto;html=1;" edge="1" parent="1" source="zyVkJc15Gza4P8rjBRWq-1" target="zyVkJc15Gza4P8rjBRWq-2">
          <mxGeometry relative="1" as="geometry" />
        </mxCell>
        <mxCell id="zyVkJc15Gza4P8rjBRWq-1" value="Start" style="ellipse;whiteSpace=wrap;html=1;" vertex="1" parent="1">
          <mxGeometry x="300" y="100" width="120" height="80" as="geometry" />
        </mxCell>
        <mxCell id="zyVkJc15Gza4P8rjBRWq-5" value="" style="edgeStyle=orthogonalEdgeStyle;rounded=0;orthogonalLoop=1;jettySize=auto;html=1;" edge="1" parent="1" source="zyVkJc15Gza4P8rjBRWq-2" target="zyVkJc15Gza4P8rjBRWq-4">
          <mxGeometry relative="1" as="geometry" />
        </mxCell>
        <mxCell id="zyVkJc15Gza4P8rjBRWq-8" value="" style="edgeStyle=orthogonalEdgeStyle;rounded=0;orthogonalLoop=1;jettySize=auto;html=1;" edge="1" parent="1" source="zyVkJc15Gza4P8rjBRWq-2" target="zyVkJc15Gza4P8rjBRWq-7">
          <mxGeometry relative="1" as="geometry" />
        </mxCell>
        <mxCell id="zyVkJc15Gza4P8rjBRWq-2" value="Init LoRa" style="whiteSpace=wrap;html=1;" vertex="1" parent="1">
          <mxGeometry x="300" y="260" width="120" height="60" as="geometry" />
        </mxCell>
        <mxCell id="zyVkJc15Gza4P8rjBRWq-4" value="Try again for 3 Time" style="ellipse;whiteSpace=wrap;html=1;" vertex="1" parent="1">
          <mxGeometry x="526" y="245" width="96" height="90" as="geometry" />
        </mxCell>
        <mxCell id="zyVkJc15Gza4P8rjBRWq-6" value="If Fail" style="text;html=1;align=center;verticalAlign=middle;whiteSpace=wrap;rounded=0;" vertex="1" parent="1">
          <mxGeometry x="446" y="260" width="60" height="30" as="geometry" />
        </mxCell>
        <mxCell id="zyVkJc15Gza4P8rjBRWq-11" value="" style="edgeStyle=orthogonalEdgeStyle;rounded=0;orthogonalLoop=1;jettySize=auto;html=1;" edge="1" parent="1" source="zyVkJc15Gza4P8rjBRWq-7" target="zyVkJc15Gza4P8rjBRWq-10">
          <mxGeometry relative="1" as="geometry" />
        </mxCell>
        <mxCell id="zyVkJc15Gza4P8rjBRWq-7" value="Check if receive any data" style="whiteSpace=wrap;html=1;" vertex="1" parent="1">
          <mxGeometry x="300" y="380" width="120" height="60" as="geometry" />
        </mxCell>
        <mxCell id="zyVkJc15Gza4P8rjBRWq-9" value="Pass" style="text;html=1;align=center;verticalAlign=middle;whiteSpace=wrap;rounded=0;" vertex="1" parent="1">
          <mxGeometry x="360" y="340" width="60" height="30" as="geometry" />
        </mxCell>
        <mxCell id="zyVkJc15Gza4P8rjBRWq-13" value="" style="edgeStyle=orthogonalEdgeStyle;rounded=0;orthogonalLoop=1;jettySize=auto;html=1;" edge="1" parent="1" source="zyVkJc15Gza4P8rjBRWq-10" target="zyVkJc15Gza4P8rjBRWq-12">
          <mxGeometry relative="1" as="geometry" />
        </mxCell>
        <mxCell id="zyVkJc15Gza4P8rjBRWq-10" value="Receive message every 10 Secs" style="whiteSpace=wrap;html=1;" vertex="1" parent="1">
          <mxGeometry x="300" y="490" width="120" height="60" as="geometry" />
        </mxCell>
        <mxCell id="zyVkJc15Gza4P8rjBRWq-15" value="" style="edgeStyle=orthogonalEdgeStyle;rounded=0;orthogonalLoop=1;jettySize=auto;html=1;" edge="1" parent="1" source="zyVkJc15Gza4P8rjBRWq-12">
          <mxGeometry relative="1" as="geometry">
            <mxPoint x="574" y="630" as="targetPoint" />
          </mxGeometry>
        </mxCell>
        <mxCell id="zyVkJc15Gza4P8rjBRWq-12" value="Show Data in Serial Monitor" style="whiteSpace=wrap;html=1;" vertex="1" parent="1">
          <mxGeometry x="514" y="490" width="120" height="60" as="geometry" />
        </mxCell>
        <mxCell id="zyVkJc15Gza4P8rjBRWq-16" value="End" style="whiteSpace=wrap;html=1;aspect=fixed;" vertex="1" parent="1">
          <mxGeometry x="534" y="630" width="80" height="80" as="geometry" />
        </mxCell>
      </root>
    </mxGraphModel>
  </diagram>
</mxfile>
